<svg xmlns="http://www.w3.org/2000/svg" viewBox="0 0 32 32">
  <rect width="32" height="32" rx="7" fill="#442808"/>
  <g stroke="#f9c06a" stroke-width="2" stroke-linecap="round" fill="none">
    <path d="M10 6c0-1 .9-1.4.9-2.4"/>
    <path d="M15 6c0-1 .9-1.4.9-2.4"/>
    <path d="M20 6c0-1 .9-1.4.9-2.4"/>
  </g>
  <path d="M9 11h13v6.5A5.5 5.5 0 0 1 16.5 23h-2A5.5 5.5 0 0 1 9 17.5V11z" fill="#fff9f1"/>
  <path d="M22 12.5h1.6A3.4 3.4 0 0 1 27 15.9v.2a3.4 3.4 0 0 1-3.4 3.4H22" fill="none" stroke="#fff9f1" stroke-width="2.4" stroke-linecap="round"/>
</svg>
